<svg width="300" height="254" viewBox="0 0 300 254" fill="none" xmlns="http://www.w3.org/2000/svg">
<g clip-path="url(#clip0_5_917)">
<path d="M289.501 106.337C274.498 125.487 246.189 129.873 222.766 123.203C215.101 120.967 207.708 117.895 200.718 114.041C196.658 111.84 192.696 109.426 188.814 106.854C187.859 106.224 186.904 105.584 185.958 104.931C185.314 104.492 184.672 104.047 184.032 103.597C176.016 97.9673 168.314 91.7918 160.741 85.6518C141.837 70.3244 122.415 54.5252 99.1891 47.2121C94.4041 45.7062 88.2139 45.0017 85.2547 49.0477C82.6875 52.5604 84.2544 57.5338 86.4268 61.3018C94.485 75.259 109.112 84.0715 123.752 90.8482C138.392 97.6248 153.9 103.115 166.627 113.023C179.354 122.931 189.069 138.679 186.466 154.575C184.223 168.274 173.018 179.403 159.99 184.254C146.962 189.101 132.432 188.426 118.889 185.278C105.347 182.127 92.4906 176.63 79.4207 171.893C71.5406 169.033 61.2388 167.055 56.0101 173.599C51.5942 179.128 54.1324 187.85 59.5099 192.452C64.8874 197.054 72.1655 198.595 79.1099 199.979C100.672 204.277 122.234 208.573 143.796 212.869C150.41 214.185 157.18 215.561 162.942 219.064C168.705 222.564 173.354 228.678 173.189 235.41C173.024 242.044 168.158 247.906 162.195 250.844C156.234 253.778 149.351 254.23 142.711 253.914C117.828 252.724 46.4886 213.264 29.3782 208.219C18.3836 204.981 6.36269 200.224 1.72645 189.76C-4.04609 176.734 5.45293 160.973 18.4192 155.024C31.3822 149.071 46.4109 150.39 60.5395 152.394C74.6681 154.397 89.2627 156.947 103.016 153.14C116.769 149.333 129.369 136.924 128.013 122.744C126.831 110.406 115.697 101.108 103.981 97.0108C94.8088 93.8018 85.0508 92.9293 75.416 91.4848C72.7417 91.0873 70.0772 90.6413 67.4387 90.092C60.6812 88.6788 54.0897 86.5669 47.7707 83.7904C41.1397 80.883 34.8401 77.2742 28.9801 73.026C24.3061 69.6426 19.9382 65.8568 15.9264 61.7122C15.3145 61.0789 14.709 60.4315 14.11 59.7701C13.5403 59.1367 12.9769 58.4904 12.4266 57.8311C5.26515 49.2901 -0.0250843 38.7713 1.56143 27.9326C3.14447 17.1229 11.5848 8.123 21.6341 3.79915C27.4422 1.30114 33.7069 0.183011 40.0491 0.0214321C44.6866 -0.071081 49.3228 0.262097 53.8992 1.01676C75.076 4.39699 94.4817 14.667 112.809 25.7868C131.134 36.9067 148.992 49.1123 168.912 57.0394C188.833 64.9697 211.509 68.3273 231.717 61.1564C251.926 53.9888 268.528 34.4313 267.541 13.0479C280.944 24.5685 292.334 39.0492 297.378 55.9697C302.422 72.8902 300.395 92.4284 289.501 106.337Z" fill="#3F3D56"/>
<path d="M192.928 84.2381C194.229 84.2381 195.284 83.1852 195.284 81.8863C195.284 80.5874 194.229 79.5344 192.928 79.5344C191.626 79.5344 190.572 80.5874 190.572 81.8863C190.572 83.1852 191.626 84.2381 192.928 84.2381Z" fill="#00DF5E"/>
<path d="M276.132 54.4991C278.144 54.4991 279.775 52.8712 279.775 50.863C279.775 48.8548 278.144 47.2268 276.132 47.2268C274.12 47.2268 272.49 48.8548 272.49 50.863C272.49 52.8712 274.12 54.4991 276.132 54.4991Z" fill="#FF6584"/>
<path d="M37.2027 166.605C37.9461 166.605 38.5487 166.003 38.5487 165.261C38.5487 164.519 37.9461 163.917 37.2027 163.917C36.4593 163.917 35.8567 164.519 35.8567 165.261C35.8567 166.003 36.4593 166.605 37.2027 166.605Z" fill="#FF6584"/>
<path d="M75.8369 88.027C75.8377 89.1924 75.6964 90.3535 75.4161 91.4848C72.7418 91.0873 70.0773 90.6414 67.4387 90.092C60.6813 88.6788 54.0898 86.5669 47.7708 83.7904C48.7869 80.5156 50.9458 77.7129 53.8555 75.8913C56.7652 74.0697 60.2329 73.3499 63.6289 73.8625C67.0249 74.3752 70.1243 76.0863 72.3642 78.6852C74.6042 81.2842 75.8363 84.5987 75.8369 88.027Z" fill="#FF6584"/>
<path d="M252.822 75.8277C253.582 75.8277 254.199 75.2125 254.199 74.4536C254.199 73.6948 253.582 73.0796 252.822 73.0796C252.062 73.0796 251.446 73.6948 251.446 74.4536C251.446 75.2125 252.062 75.8277 252.822 75.8277Z" fill="#F0F0F0"/>
<path d="M126.882 227.065C127.642 227.065 128.259 226.45 128.259 225.691C128.259 224.933 127.642 224.317 126.882 224.317C126.122 224.317 125.506 224.933 125.506 225.691C125.506 226.45 126.122 227.065 126.882 227.065Z" fill="#F0F0F0"/>
<path d="M146.631 246.132C147.391 246.132 148.008 245.516 148.008 244.758C148.008 243.999 147.391 243.384 146.631 243.384C145.871 243.384 145.255 243.999 145.255 244.758C145.255 245.516 145.871 246.132 146.631 246.132Z" fill="#F0F0F0"/>
<path d="M24.5763 191.841C25.3366 191.841 25.9529 191.226 25.9529 190.467C25.9529 189.708 25.3366 189.093 24.5763 189.093C23.816 189.093 23.1997 189.708 23.1997 190.467C23.1997 191.226 23.816 191.841 24.5763 191.841Z" fill="#F0F0F0"/>
<path d="M92.2408 166.312C93.0011 166.312 93.6174 165.697 93.6174 164.938C93.6174 164.179 93.0011 163.564 92.2408 163.564C91.4806 163.564 90.8643 164.179 90.8643 164.938C90.8643 165.697 91.4806 166.312 92.2408 166.312Z" fill="#F0F0F0"/>
<path d="M85.442 29.9393C86.2023 29.9393 86.8186 29.3241 86.8186 28.5652C86.8186 27.8063 86.2023 27.1912 85.442 27.1912C84.6817 27.1912 84.0654 27.8063 84.0654 28.5652C84.0654 29.3241 84.6817 29.9393 85.442 29.9393Z" fill="#F0F0F0"/>
<path d="M168.646 137.551C169.407 137.551 170.023 136.936 170.023 136.177C170.023 135.418 169.407 134.803 168.646 134.803C167.886 134.803 167.27 135.418 167.27 136.177C167.27 136.936 167.886 137.551 168.646 137.551Z" fill="#F0F0F0"/>
<path d="M179.006 161.464C179.767 161.464 180.383 160.849 180.383 160.09C180.383 159.331 179.767 158.716 179.006 158.716C178.246 158.716 177.63 159.331 177.63 160.09C177.63 160.849 178.246 161.464 179.006 161.464Z" fill="#F0F0F0"/>
<path d="M54.9225 32.9513C54.9326 39.889 53.2903 46.7298 50.131 52.9095C49.7133 53.7238 49.2708 54.5242 48.8036 55.3105C44.1771 63.1091 37.2551 69.295 28.9802 73.026C24.3062 69.6426 19.9383 65.8569 15.9265 61.7123C15.3146 61.0789 14.7091 60.4315 14.1101 59.7701C13.5404 59.1367 12.977 58.4904 12.4267 57.8312C5.26525 49.2901 -0.0249796 38.7713 1.56154 27.9326C3.14458 17.123 11.5849 8.12304 21.6342 3.79918C27.4423 1.30117 33.707 0.183063 40.0493 0.0214844C45.0083 4.39286 48.9177 9.8226 51.4875 15.9079C51.8112 16.6738 52.1091 17.4494 52.3907 18.2347C54.071 22.9597 54.9273 27.9374 54.9225 32.9513Z" fill="#00DF5E"/>
<path d="M74.9952 35.2134C74.9952 41.9448 68.4101 48.1882 56.4507 52.7997C54.0581 53.7239 51.4972 54.5609 48.8036 55.3106C38.7219 58.1156 26.7236 59.67 14.1102 59.7702C13.5404 59.1368 12.977 58.4905 12.4268 57.8312C12.5627 57.8344 12.6987 57.8345 12.8346 57.8345C26.5326 57.8345 39.5281 56.1023 50.131 52.9095C52.0897 52.3181 53.9675 51.6783 55.7513 50.99C66.746 46.7534 73.0527 41.0012 73.0527 35.2134C73.0527 29.4257 66.746 23.6767 55.7513 19.4368C54.6636 19.0167 53.5434 18.616 52.3908 18.2347C52.1091 17.4494 51.8113 16.6738 51.4875 15.908C53.2098 16.4444 54.8642 17.0175 56.4507 17.6272C68.4101 22.2386 74.9952 28.4853 74.9952 35.2134Z" fill="#E4E4E4"/>
<path d="M14.8639 11.1961C15.6242 11.1961 16.2405 10.5809 16.2405 9.82206C16.2405 9.06318 15.6242 8.448 14.8639 8.448C14.1036 8.448 13.4873 9.06318 13.4873 9.82206C13.4873 10.5809 14.1036 11.1961 14.8639 11.1961Z" fill="#F0F0F0"/>
<path d="M43.6779 19.9212C44.4381 19.9212 45.0544 19.306 45.0544 18.5472C45.0544 17.7883 44.4381 17.1731 43.6779 17.1731C42.9176 17.1731 42.3013 17.7883 42.3013 18.5472C42.3013 19.306 42.9176 19.9212 43.6779 19.9212Z" fill="#F0F0F0"/>
<path d="M28.7851 45.8052C36.1784 45.8052 42.1718 39.8228 42.1718 32.4431C42.1718 25.0635 36.1784 19.0811 28.7851 19.0811C21.3919 19.0811 15.3984 25.0635 15.3984 32.4431C15.3984 39.8228 21.3919 45.8052 28.7851 45.8052Z" fill="#F0F0F0"/>
<path opacity="0.3" d="M276.004 103.164C272.999 104.049 266.375 104.702 259.091 105.103C251.81 105.5 243.823 105.675 235.936 105.843C222.131 106.14 208.327 106.438 194.525 106.738C192.627 106.78 190.724 106.819 188.814 106.854C187.859 106.224 186.904 105.584 185.958 104.931C187.651 104.941 189.345 104.931 191.025 104.899C198.203 104.757 204.279 104.198 211.201 103.933C221.853 103.522 233.352 103.845 244.454 104.01C255.555 104.178 268.204 104.117 276.004 103.164Z" fill="#F0F0F0"/>
<path opacity="0.3" d="M64.1303 205.033L20.1255 168.442L62.8754 206.499C62.9582 206.638 63.073 206.755 63.2104 206.841C63.3478 206.927 63.5037 206.98 63.6653 206.993C63.8269 207.007 63.9894 206.982 64.1395 206.921C64.2895 206.86 64.4228 206.763 64.5281 206.64C64.6335 206.517 64.7079 206.371 64.7453 206.213C64.7827 206.056 64.7819 205.892 64.743 205.735C64.7041 205.578 64.6282 205.432 64.5217 205.31C64.4151 205.188 64.2809 205.093 64.1303 205.033H64.1303Z" fill="#F0F0F0"/>
<path d="M30.7277 66.4561C31.4879 66.4561 32.1042 65.841 32.1042 65.0821C32.1042 64.3232 31.4879 63.708 30.7277 63.708C29.9674 63.708 29.3511 64.3232 29.3511 65.0821C29.3511 65.841 29.9674 66.4561 30.7277 66.4561Z" fill="#F0F0F0"/>
<path d="M146.342 224.295L152.036 224.295L154.744 202.373L146.341 202.373L146.342 224.295Z" fill="#FFB6B6"/>
<path d="M144.889 222.44L146.492 222.44L152.749 219.9L156.103 222.439H156.103C157.998 222.439 159.816 223.191 161.156 224.528C162.496 225.866 163.249 227.68 163.249 229.572V229.804L144.89 229.804L144.889 222.44Z" fill="#2F2E41"/>
<path d="M103.701 224.295L98.0069 224.295L95.2981 202.373L103.702 202.373L103.701 224.295Z" fill="#FFB6B6"/>
<path d="M105.153 229.804L86.7935 229.804V229.572C86.7936 227.68 87.5465 225.866 88.8866 224.528C90.2268 223.191 92.0443 222.439 93.9395 222.439H93.94L97.2936 219.9L103.551 222.44L105.153 222.44L105.153 229.804Z" fill="#2F2E41"/>
<path d="M124.103 56.2903L118.337 60.6723L103.022 64.7208C103.022 64.7208 108.51 103.164 105.92 105.749C103.33 108.334 105.666 108.404 105.145 111.762C104.625 115.121 102.551 123.987 102.551 123.987H148.261C148.261 123.987 148.629 118.477 146.376 117.283C144.123 116.09 148.453 110.52 146.612 109.589C144.77 108.657 147.36 100.579 147.36 100.579L152.973 74.1282L138.044 62.4687L135.773 57.0082L124.103 56.2903Z" fill="#00DF5E"/>
<path d="M131.297 90.6424C132.398 90.6424 133.291 89.7509 133.291 88.6513C133.291 87.5516 132.398 86.6602 131.297 86.6602C130.195 86.6602 129.302 87.5516 129.302 88.6513C129.302 89.7509 130.195 90.6424 131.297 90.6424Z" fill="#F2F2F2"/>
<path d="M102.551 123.987L100.666 172.435C100.666 172.435 92.5274 208.219 93.9411 209.159C95.3548 210.1 95.9537 215.709 95.9537 215.709L103.965 216.65C103.965 216.65 103.965 212.887 105.85 211.476C107.735 210.065 125.17 143.743 125.17 143.743L142.18 207.867C142.18 207.867 142.606 211.476 144.02 211.476C145.434 211.476 145.905 216.65 145.905 216.65H153.916V211.476C153.916 211.476 157.515 210.337 156.102 206.574C154.688 202.811 148.261 123.987 148.261 123.987H102.551Z" fill="#2F2E41"/>
<path d="M130.09 53.4031C135.425 53.4031 139.75 49.0859 139.75 43.7605C139.75 38.435 135.425 34.1179 130.09 34.1179C124.754 34.1179 120.429 38.435 120.429 43.7605C120.429 49.0859 124.754 53.4031 130.09 53.4031Z" fill="#FFB6B6"/>
<path opacity="0.1" d="M146.612 87.0632L148.496 88.4745L149.439 81.8892L146.612 87.0632Z" fill="black"/>
<path d="M103.926 64.6833C103.926 64.6833 101.569 64.2129 100.156 68.4462C98.742 72.6796 93.5583 88.6722 93.5583 91.4944C93.5583 94.3166 125.84 106.769 125.84 106.769L122.481 95.0073L107.695 87.261L103.926 64.6833Z" fill="#00DF5E"/>
<path d="M127.337 105.025C130.377 105.025 132.841 102.566 132.841 99.5315C132.841 96.4974 130.377 94.0378 127.337 94.0378C124.298 94.0378 121.833 96.4974 121.833 99.5315C121.833 102.566 124.298 105.025 127.337 105.025Z" fill="#FFB6B6"/>
<path opacity="0.1" d="M107.265 81.4348L107.696 87.261L121.368 94.4241L109.207 86.2822L107.265 81.4348Z" fill="black"/>
<path d="M140.133 82.2655H139.955V77.4155C139.955 77.0468 139.883 76.6818 139.741 76.3413C139.6 76.0007 139.393 75.6912 139.132 75.4306C138.871 75.1699 138.561 74.9631 138.219 74.8221C137.878 74.681 137.513 74.6084 137.143 74.6084H126.849C126.48 74.6084 126.114 74.681 125.773 74.8221C125.431 74.9631 125.121 75.1699 124.86 75.4306C124.599 75.6912 124.392 76.0007 124.251 76.3412C124.109 76.6818 124.037 77.0468 124.037 77.4155V104.023C124.037 104.392 124.109 104.757 124.251 105.097C124.392 105.438 124.599 105.747 124.86 106.008C125.121 106.269 125.431 106.475 125.773 106.617C126.114 106.758 126.48 106.83 126.849 106.83H137.143C137.513 106.83 137.878 106.758 138.219 106.617C138.561 106.476 138.871 106.269 139.132 106.008C139.393 105.747 139.6 105.438 139.741 105.097C139.883 104.757 139.955 104.392 139.955 104.023V85.7179H140.133V82.2655Z" fill="#F0F0F0"/>
<path d="M152.973 74.1282C152.973 74.1282 154.387 75.0689 155.329 79.3023C156.272 83.5356 162.398 99.5282 160.042 103.291C157.686 107.054 156.99 111.07 148.979 105.426L137.894 95.2949L145.905 87.7689L149.203 90.1208L152.973 74.1282Z" fill="#00DF5E"/>
<path d="M132.122 86.4674C133.423 86.4674 134.478 85.4144 134.478 84.1155C134.478 82.8166 133.423 81.7637 132.122 81.7637C130.821 81.7637 129.766 82.8166 129.766 84.1155C129.766 85.4144 130.821 86.4674 132.122 86.4674Z" fill="#00DF5E"/>
<path d="M138.943 94.7615C141.982 94.7615 144.447 92.3019 144.447 89.2679C144.447 86.2338 141.982 83.7742 138.943 83.7742C135.903 83.7742 133.439 86.2338 133.439 89.2679C133.439 92.3019 135.903 94.7615 138.943 94.7615Z" fill="#FFB6B6"/>
<path opacity="0.1" d="M107.005 99.0188L122.805 105.995L106.566 102.827L107.005 99.0188Z" fill="black"/>
<path d="M120.343 45.6821L119.017 40.6434C118.671 39.3287 118.322 37.9875 118.4 36.6304C118.477 35.2733 119.054 33.8728 120.2 33.1376C121.345 32.4024 123.094 32.5761 123.831 33.7191C123.971 31.894 125.634 30.4901 127.399 29.9928C129.164 29.4955 131.038 29.6922 132.869 29.7761C134.701 29.86 136.635 29.8014 138.216 28.874C138.336 29.2349 138.329 29.6261 138.194 29.9818C138.059 30.3375 137.805 30.6358 137.475 30.8263C137.868 30.9334 138.287 30.8874 138.647 30.6977C139.008 30.508 139.282 30.1887 139.416 29.8045C139.428 30.8615 139.037 31.8834 138.321 32.6629C139.004 32.3251 139.787 32.2526 140.52 32.4598C141.253 32.6669 141.882 33.1387 142.286 33.7835C143.093 35.1798 142.641 36.9333 142.169 38.4748L139.746 46.3865C139.378 45.1838 139.309 43.914 139.112 42.672C138.916 41.4301 138.566 40.1617 137.745 39.2084C136.923 38.2551 135.528 37.703 134.361 38.1763C133.706 38.4419 133.207 38.9807 132.616 39.3674C131.403 40.1608 129.86 40.2746 128.419 40.1131C126.978 39.9517 125.574 39.5421 124.133 39.3784C123.231 39.276 122.224 39.3031 121.543 39.9029C121.075 40.3885 120.766 41.0047 120.657 41.6697C120.335 42.9953 120.209 44.3605 120.282 45.7223" fill="#2F2E41"/>
</g>
<defs>
<clipPath id="clip0_5_917">
<rect width="300" height="254" fill="white"/>
</clipPath>
</defs>
</svg>
