<svg width="117" height="111" viewBox="0 0 117 111" fill="none" xmlns="http://www.w3.org/2000/svg">
<g filter="url(#filter0_d_101_3124)">
<path d="M89.9234 13.5289L85.8648 13.0779V18.1287L83.3394 15.1524L80.9042 12.5368H79.5513V14.1602L78.469 15.9641V13.5289L77.2965 10.4623L74.8613 9.01926L74.3201 10.7329L73.1476 12.8074V10.4623L72.6065 8.20753L71.2536 6.76445L69.3595 6.31349L68.0066 5.05079H66.4734L64.8499 8.20753V5.50175L63.8578 3.42732L61.7833 2.34501L60.1599 2.70578L59.4383 4.23905L58.8972 6.31349L58.6266 4.23905L57.7247 2.34501L56.3718 1.08231L54.7483 0.721541L53.4856 1.08231L52.8543 2.70578V5.05079L52.2229 4.69002L51.8622 2.70578L50.7798 0.721541L48.4348 0L46.7212 0.721541L46.2702 2.34501L46.7212 4.69002L45.7291 5.05079L45.4585 3.42732L44.4664 1.89405L42.7527 0.721541H40.9488L39.6861 1.53328L39.4156 3.42732L39.6861 5.50175L38.1529 3.78809L36.4392 2.70578H34.3648L33.3727 3.42732L33.6432 6.22329V7.48599L31.7492 6.22329L30.1257 5.50175L28.1415 5.77233L27.42 6.58406L27.7807 8.74869L28.1415 10.1016L26.518 9.47023L24.7142 9.10946L22.5495 9.47023L22.0986 10.4623L22.5495 12.5368L23.0005 13.8897L21.5574 13.3485H18.4007L17.138 14.3406L17.4086 15.9641L18.4007 18.1287H16.2361L14.2518 18.6699L13.2597 19.5718L12.9891 20.7443L13.6205 21.9168L14.9734 23.3599L12.3578 23.9912L10.5539 24.7128L9.56181 25.7049V26.8774L10.2833 27.8695L11.6362 29.042L10.2833 29.944L8.65988 30.9361L8.02853 31.5674L7.12661 32.5595L6.85603 34.0026L7.12661 34.9046L7.57757 35.1751L8.65988 36.2574L7.57757 37.7005L6.85603 38.5123L6.22468 39.4142L5.68353 40.9475L5.23256 42.3004V44.1042L5.68353 45.0061L7.12661 45.2767L6.22468 46.1786L5.50314 46.5394L4.96198 49.155L4.69141 54.8371L5.50314 61.9623L6.67564 66.6975L7.84815 71.4326L9.38142 75.9422L11.8166 80.8126L14.1616 84.5105L16.0557 87.4869L19.8438 91.5455L22.7299 94.2513L26.3376 96.6865L31.208 99.5727L35.5373 101.557L41.5802 102.729L46.3604 103L50.2387 102.729L55.5601 101.557L60.0697 99.5727L63.4068 97.2277L65.6616 95.4238L68.3674 92.3573L70.6222 88.028L71.3438 85.7732L71.7947 82.5263V78.4676L71.5242 76.7539L71.1634 74.7697L70.1713 72.5149L67.0145 67.7347L64.3989 65.2995L59.8893 62.6839L56.8228 61.9623H53.3954H51.5014L49.2466 62.4133L45.7291 64.127L43.2939 65.9308L41.5802 68.1856L40.4979 69.9895L39.6861 72.5149L39.3254 74.4991V76.7539V78.1068L40.0469 80.2715L40.7685 81.8949L41.941 83.9694L43.7448 85.5026L45.7291 86.8555L48.0741 87.7574L49.8779 88.028H51.5014L53.8464 87.4869L55.8306 86.4046L56.8228 85.5026L58.0854 83.9694L58.8972 82.2557L59.1678 79.8205L58.8972 78.1068L58.0854 76.7539L56.8228 75.4011L54.7483 74.7697H52.8543L51.8622 75.4011L51.2751 75.9422L50.6897 76.9343L50.5093 78.1068L50.7798 79.0088L51.5014 79.8205L52.0425 80.2715H50.7798L49.1564 79.2793L48.0741 77.5657L47.7133 75.9422L48.0741 73.958L49.1564 71.9737L52.0425 69.7189L54.7483 69.0876H57.7247L60.6108 70.711L62.6853 71.9737L64.7597 74.4991L65.6616 76.9343L66.1126 80.2715V83.6988L65.2107 86.4046L63.4068 89.6515L60.6108 92.3573L57.2737 94.2513L53.3954 95.4238L50.2387 95.7846L46.7212 95.4238L43.2939 94.7925L39.6861 93.3494L36.5294 91.5455L32.2904 87.8476L30.3061 85.187L28.3219 82.5263L26.3376 78.3774L25.0749 74.4991L24.2632 70.711L23.8122 65.9308L24.3534 60.2487L25.9769 55.6489L27.8709 51.5902L30.6669 47.3511L33.1021 45.5473L35.8079 47.8729L39.3254 50.2373L45.5487 52.1313L46.5408 52.4921L47.9839 53.4842L49.2466 54.8371L50.3289 55.6489L51.4112 56.5508H53.8464L54.2974 56.4606L54.7483 56.2802L55.4699 55.1979V53.394L55.1993 51.5902L54.5679 50.2373L53.3954 48.8844L51.772 47.8729L48.3446 46.6102L45.5487 45.0061L44.5566 43.9238L43.835 43.1121L47.0819 42.8415L50.5995 42.3905H53.8464L56.011 42.8415L56.5522 44.6454L57.8149 46.2688L61.0724 49.4874L65.4918 53.1853L69.7203 54.1156L72.5163 55.6489L73.6888 57.9037L74.4103 58.8958L75.7632 59.5271L76.9357 59.0762L77.6572 57.9037V56.5508V53.4842L76.9357 52.1313L75.3122 50.2373L71.3438 48.704L69.7203 47.7119L68.3674 46.2688H70.8026L73.328 46.6102L78.469 47.3511L83.4296 47.8729H88.7448L99.9348 46.6296L105.797 45.5473L108.233 45.0963L109.585 44.6454L110.668 44.1042L111.75 42.8415L112.562 41.4886L112.742 40.0455V39.0534V37.9711L111.57 36.0771L109.225 32.3792V31.1165L109.044 29.944L108.233 28.3205L107.06 27.148L105.797 26.4264L104.264 26.0657L99.6643 19.7522L96.8683 16.9562L95.6958 15.9641L93.9821 15.1524L91.9077 14.1602L89.9234 13.5289Z" fill="#00DF5E"/>
</g>
<ellipse cx="96.327" cy="31.1164" rx="5.77233" ry="5.86252" fill="#001F01"/>
<circle cx="98.2211" cy="31.2967" r="1.35289" fill="#F6F6FE"/>
<defs>
<filter id="filter0_d_101_3124" x="0.691406" y="0" width="116.051" height="111" filterUnits="userSpaceOnUse" color-interpolation-filters="sRGB">
<feFlood flood-opacity="0" result="BackgroundImageFix"/>
<feColorMatrix in="SourceAlpha" type="matrix" values="0 0 0 0 0 0 0 0 0 0 0 0 0 0 0 0 0 0 127 0" result="hardAlpha"/>
<feOffset dy="4"/>
<feGaussianBlur stdDeviation="2"/>
<feComposite in2="hardAlpha" operator="out"/>
<feColorMatrix type="matrix" values="0 0 0 0 0 0 0 0 0 0 0 0 0 0 0 0 0 0 0.25 0"/>
<feBlend mode="normal" in2="BackgroundImageFix" result="effect1_dropShadow_101_3124"/>
<feBlend mode="normal" in="SourceGraphic" in2="effect1_dropShadow_101_3124" result="shape"/>
</filter>
</defs>
</svg>
