<svg width="56" height="56" viewBox="0 0 56 56" fill="none" xmlns="http://www.w3.org/2000/svg">
<g clip-path="url(#clip0_21_184)">
<path d="M11.6665 12.8334C11.6665 10.6675 12.5269 8.59026 14.0585 7.05871C15.59 5.52716 17.6672 4.66675 19.8332 4.66675H27.9998V21.0001H19.8332C17.6672 21.0001 15.59 20.1397 14.0585 18.6081C12.5269 17.0766 11.6665 14.9993 11.6665 12.8334Z" stroke="#00DF5E" stroke-width="2" stroke-linecap="round" stroke-linejoin="round"/>
<path d="M28 4.66675H36.1667C37.2391 4.66675 38.3011 4.87798 39.2919 5.2884C40.2827 5.69881 41.183 6.30036 41.9414 7.05871C42.6997 7.81705 43.3013 8.71734 43.7117 9.70817C44.1221 10.699 44.3333 11.761 44.3333 12.8334C44.3333 13.9059 44.1221 14.9678 43.7117 15.9587C43.3013 16.9495 42.6997 17.8498 41.9414 18.6081C41.183 19.3665 40.2827 19.968 39.2919 20.3784C38.3011 20.7888 37.2391 21.0001 36.1667 21.0001H28V4.66675Z" stroke="#00DF5E" stroke-width="2" stroke-linecap="round" stroke-linejoin="round"/>
<path d="M28 29.1667C28 28.0942 28.2112 27.0322 28.6216 26.0414C29.0321 25.0506 29.6336 24.1503 30.392 23.392C31.1503 22.6336 32.0506 22.0321 33.0414 21.6216C34.0322 21.2112 35.0942 21 36.1667 21C37.2391 21 38.3011 21.2112 39.2919 21.6216C40.2827 22.0321 41.183 22.6336 41.9414 23.392C42.6997 24.1503 43.3013 25.0506 43.7117 26.0414C44.1221 27.0322 44.3333 28.0942 44.3333 29.1667C44.3333 30.2391 44.1221 31.3011 43.7117 32.2919C43.3013 33.2827 42.6997 34.183 41.9414 34.9414C41.183 35.6997 40.2827 36.3013 39.2919 36.7117C38.3011 37.1221 37.2391 37.3333 36.1667 37.3333C35.0942 37.3333 34.0322 37.1221 33.0414 36.7117C32.0506 36.3013 31.1503 35.6997 30.392 34.9414C29.6336 34.183 29.0321 33.2827 28.6216 32.2919C28.2112 31.3011 28 30.2391 28 29.1667V29.1667Z" stroke="#00DF5E" stroke-width="2" stroke-linecap="round" stroke-linejoin="round"/>
<path d="M11.6665 45.4999C11.6665 43.334 12.5269 41.2568 14.0585 39.7252C15.59 38.1937 17.6672 37.3333 19.8332 37.3333H27.9998V45.4999C27.9998 47.6659 27.1394 49.7431 25.6079 51.2746C24.0763 52.8062 21.9991 53.6666 19.8332 53.6666C17.6672 53.6666 15.59 52.8062 14.0585 51.2746C12.5269 49.7431 11.6665 47.6659 11.6665 45.4999Z" stroke="#00DF5E" stroke-width="2" stroke-linecap="round" stroke-linejoin="round"/>
<path d="M11.6665 29.1667C11.6665 27.0007 12.5269 24.9235 14.0585 23.392C15.59 21.8604 17.6672 21 19.8332 21H27.9998V37.3333H19.8332C17.6672 37.3333 15.59 36.4729 14.0585 34.9414C12.5269 33.4098 11.6665 31.3326 11.6665 29.1667Z" stroke="#00DF5E" stroke-width="2" stroke-linecap="round" stroke-linejoin="round"/>
</g>
<defs>
<clipPath id="clip0_21_184">
<rect width="56" height="56" fill="white"/>
</clipPath>
</defs>
</svg>
