<svg width="50" height="37" viewBox="0 0 50 37" fill="none" xmlns="http://www.w3.org/2000/svg">
<g clip-path="url(#clip0_111_2041)">
<path d="M31.7571 0.225342C36.5358 0.225342 41.1187 2.12366 44.4978 5.5027C47.8768 8.88173 49.7751 13.4647 49.7751 18.2434C49.7751 23.022 47.8768 27.605 44.4978 30.984C41.1187 34.3631 36.5358 36.2614 31.7571 36.2614C26.9784 36.2614 22.3955 34.3631 19.0165 30.984C15.6374 27.605 13.7391 23.022 13.7391 18.2434C13.7391 13.4647 15.6374 8.88173 19.0165 5.5027C22.3955 2.12366 26.9784 0.225342 31.7571 0.225342ZM31.7571 4.72985C28.1731 4.72985 24.7359 6.15359 22.2016 8.68786C19.6673 11.2221 18.2436 14.6594 18.2436 18.2434C18.2436 21.8274 19.6673 25.2646 22.2016 27.7989C24.7359 30.3331 28.1731 31.7569 31.7571 31.7569C35.3411 31.7569 38.7783 30.3331 41.3126 27.7989C43.8469 25.2646 45.2706 21.8274 45.2706 18.2434C45.2706 14.6594 43.8469 11.2221 41.3126 8.68786C38.7783 6.15359 35.3411 4.72985 31.7571 4.72985ZM29.5049 9.23435H32.8832V17.7479L38.131 22.9956L35.7436 25.383L29.5049 19.1443V9.23435ZM2.47784 31.7569C1.8805 31.7569 1.30763 31.5196 0.885255 31.0972C0.462876 30.6748 0.225586 30.102 0.225586 29.5046C0.225586 28.9073 0.462876 28.3344 0.885255 27.912C1.30763 27.4897 1.8805 27.2524 2.47784 27.2524H11.104C11.8022 28.8515 12.7031 30.3605 13.7391 31.7569H2.47784ZM4.73009 20.4956C4.13276 20.4956 3.55989 20.2583 3.13751 19.8359C2.71513 19.4136 2.47784 18.8407 2.47784 18.2434C2.47784 17.646 2.71513 17.0732 3.13751 16.6508C3.55989 16.2284 4.13276 15.9911 4.73009 15.9911H9.34721L9.23459 18.2434L9.34721 20.4956H4.73009ZM6.98234 9.23435C6.38501 9.23435 5.81214 8.99706 5.38976 8.57468C4.96738 8.1523 4.73009 7.57943 4.73009 6.9821C4.73009 6.38476 4.96738 5.8119 5.38976 5.38952C5.81214 4.96714 6.38501 4.72985 6.98234 4.72985H13.7391C12.7031 6.12624 11.8022 7.63525 11.104 9.23435H6.98234Z" fill="#00DF5E"/>
</g>
<defs>
<clipPath id="clip0_111_2041">
<rect width="50" height="36.4865" fill="white"/>
</clipPath>
</defs>
</svg>
