<svg width="80" height="72" viewBox="0 0 80 72" fill="none" xmlns="http://www.w3.org/2000/svg">
<path d="M80 35.63C80 30.33 73.3633 25.3067 63.1867 22.1933C65.5367 11.8233 64.4933 3.57 59.8933 0.926667C58.7787 0.302401 57.5172 -0.0118263 56.24 0.0166667V3.65C56.99 3.65 57.5933 3.8 58.1 4.07667C60.3167 5.35 61.28 10.19 60.53 16.42C60.35 17.9533 60.0567 19.5667 59.6967 21.2133C56.2888 20.3921 52.83 19.7986 49.3433 19.4367C47.2662 16.571 45 13.8471 42.56 11.2833C47.8767 6.34333 52.8667 3.63667 56.26 3.63667V0C51.7733 0 45.9033 3.19667 39.9667 8.74C34.0333 3.23333 28.16 0.0666666 23.6767 0.0666666V3.7C27.0533 3.7 32.06 6.39333 37.3767 11.3C35.0933 13.7 32.81 16.42 30.64 19.4367C27.1461 19.7946 23.6812 20.3938 20.27 21.23C19.8933 19.6 19.6167 18.02 19.42 16.5033C18.6533 10.27 19.6 5.43 21.8033 4.14333C22.29 3.85 22.9267 3.71667 23.6767 3.71667V0.0833333C22.31 0.0833333 21.0667 0.376667 19.9933 0.993333C15.41 3.63667 14.3833 11.87 16.7467 22.21C6.60333 25.3433 0 30.3467 0 35.63C0 40.93 6.63667 45.9533 16.8133 49.0633C14.4633 59.4367 15.5067 67.69 20.1067 70.33C21.1667 70.95 22.4067 71.2433 23.7733 71.2433C28.26 71.2433 34.13 68.0467 40.0667 62.5033C46 68.0133 51.87 71.1767 56.3567 71.1767C57.6437 71.2038 58.9148 70.8887 60.04 70.2633C64.6233 67.6233 65.65 59.39 63.2867 49.05C73.3967 45.9367 80 40.9133 80 35.63ZM58.7667 24.7533C58.1333 26.9329 57.3992 29.0818 56.5667 31.1933C55.2039 28.5425 53.7075 25.9625 52.0833 23.4633C54.4 23.8067 56.6333 24.23 58.77 24.7533H58.7667ZM51.3 42.12C50.03 44.32 48.7233 46.41 47.37 48.35C42.4775 48.7812 37.5568 48.7868 32.6633 48.3667C29.8565 44.3573 27.4018 40.1126 25.3267 35.68C27.3986 31.237 29.8429 26.9774 32.6333 22.9467C37.5246 22.5146 42.4442 22.5079 47.3367 22.9267C48.69 24.8667 50.0133 26.94 51.2833 29.1267C52.5233 31.26 53.65 33.4267 54.6767 35.6133C53.6386 37.8265 52.5121 39.9972 51.3 42.12ZM56.5667 40C57.4467 42.1833 58.2 44.37 58.8167 46.49C56.6833 47.0133 54.43 47.4533 52.1 47.7933C53.7175 45.2714 55.2082 42.6704 56.5667 40ZM40.0333 57.4C38.5167 55.8333 37 54.09 35.5 52.18C36.9667 52.2467 38.4667 52.2967 39.9833 52.2967C41.5167 52.2967 43.0333 52.2633 44.5167 52.18C43.05 54.09 41.5333 55.8333 40.0333 57.4ZM27.9 47.7933C25.6525 47.4677 23.4212 47.0383 21.2133 46.5067C21.8167 44.4033 22.5667 42.2333 23.4133 40.0667C24.0833 41.3667 24.7867 42.6733 25.5533 43.98C26.32 45.2833 27.1 46.5567 27.9 47.7933ZM39.95 13.86C41.4667 15.4267 42.9833 17.17 44.4833 19.08C43.0167 19.0133 41.5167 18.9633 40 18.9633C38.4667 18.9633 36.95 18.9967 35.4667 19.08C36.9333 17.17 38.45 15.4267 39.95 13.86ZM27.8833 23.4667C26.2662 25.9831 24.7755 28.5785 23.4167 31.2433C22.5607 29.1182 21.8098 26.9522 21.1667 24.7533C23.3 24.2467 25.5533 23.8067 27.8833 23.4667ZM13.1267 43.88C7.35333 41.42 3.62 38.19 3.62 35.63C3.62 33.07 7.35333 29.8233 13.1267 27.38C14.5267 26.7767 16.06 26.2367 17.6433 25.7333C18.5733 28.9267 19.7967 32.2533 21.31 35.6633C19.8812 38.8706 18.6729 42.1716 17.6933 45.5433C16.1448 45.0639 14.6208 44.5088 13.1267 43.88ZM21.9 67.18C19.6833 65.9133 18.72 61.0667 19.47 54.84C19.65 53.3067 19.9433 51.69 20.3033 50.0433C23.4967 50.8267 26.9867 51.43 30.6567 51.8233C32.7339 54.689 35.0001 57.4128 37.44 59.9767C32.1233 64.9167 27.1333 67.6233 23.74 67.6233C23.0998 67.6303 22.4678 67.4792 21.9 67.1833V67.18ZM60.58 54.7567C61.3467 60.9867 60.4 65.83 58.1967 67.1167C57.71 67.41 57.0733 67.54 56.3233 67.54C52.9467 67.54 47.94 64.85 42.6233 59.94C44.9067 57.5467 47.19 54.8233 49.36 51.8067C52.8539 51.4488 56.3188 50.8496 59.73 50.0133C60.1067 51.66 60.3967 53.24 60.58 54.7567ZM66.8567 43.88C65.4567 44.4833 63.9233 45.0233 62.34 45.5267C61.3432 42.1377 60.1182 38.8201 58.6733 35.5967C60.1733 32.2067 61.3767 28.8967 62.29 25.7167C63.9067 26.22 65.4367 26.7767 66.8733 27.38C72.6467 29.84 76.38 33.07 76.38 35.63C76.3633 38.19 72.63 41.4367 66.8567 43.88Z" fill="#00DF5E"/>
<path d="M39.9829 43.0829C41.9596 43.0829 43.8554 42.2977 45.2532 40.8999C46.651 39.5021 47.4362 37.6063 47.4362 35.6296C47.4362 33.6529 46.651 31.7571 45.2532 30.3593C43.8554 28.9615 41.9596 28.1763 39.9829 28.1763C38.0061 28.1763 36.1103 28.9615 34.7126 30.3593C33.3148 31.7571 32.5295 33.6529 32.5295 35.6296C32.5295 37.6063 33.3148 39.5021 34.7126 40.8999C36.1103 42.2977 38.0061 43.0829 39.9829 43.0829Z" fill="#00DF5E"/>
</svg>
