<svg width="50" height="58" viewBox="0 0 50 58" fill="none" xmlns="http://www.w3.org/2000/svg">
<path d="M13.1553 14.898C13.1553 16.1429 13.6498 17.3368 14.5301 18.2171C15.4104 19.0973 16.6043 19.5919 17.8492 19.5919C19.094 19.5919 20.288 19.0973 21.1682 18.2171C22.0485 17.3368 22.543 16.1429 22.543 14.898C22.543 13.6531 22.0485 12.4592 21.1682 11.5789C20.288 10.6986 19.094 10.2041 17.8492 10.2041C16.6043 10.2041 15.4104 10.6986 14.5301 11.5789C13.6498 12.4592 13.1553 13.6531 13.1553 14.898Z" stroke="#00DF5E" stroke-width="3" stroke-linecap="round" stroke-linejoin="round"/>
<path d="M10.7139 24.2448C11.4215 22.8687 12.4698 21.6968 13.7588 20.8407C15.0077 20.0243 16.42 19.5999 17.8526 19.5999C19.2853 19.5999 20.6975 20.0243 21.9465 20.8407C23.1996 21.6529 24.2445 22.8243 24.9914 24.2448" stroke="#00DF5E" stroke-width="3" stroke-linecap="round" stroke-linejoin="round"/>
<path d="M47.4487 51.0204C47.4487 52.1029 47.0187 53.1411 46.2533 53.9065C45.4878 54.672 44.4496 55.102 43.3671 55.102H6.63241C5.5499 55.102 4.51172 54.672 3.74626 53.9065C2.98081 53.1411 2.55078 52.1029 2.55078 51.0204V6.1224C2.55078 5.03989 2.98081 4.00171 3.74626 3.23625C4.51172 2.4708 5.5499 2.04077 6.63241 2.04077H33.163L47.4487 16.3265V51.0204Z" stroke="#00DF5E" stroke-width="3" stroke-linecap="round" stroke-linejoin="round"/>
<path d="M10.7139 34.6938H39.2853M10.7139 44.8979H27.0404" stroke="#00DF5E" stroke-width="3" stroke-linecap="round"/>
</svg>
