<svg width="32" height="29" viewBox="0 0 32 29" fill="none" xmlns="http://www.w3.org/2000/svg">
<path d="M16.0535 0C16.0535 0 6.34993 8.37647 0.927188 12.9129C0.754634 13.0633 0.615611 13.2482 0.519138 13.4558C0.422664 13.6633 0.370895 13.8888 0.367188 14.1176C0.367188 14.5337 0.532453 14.9327 0.826628 15.2268C1.1208 15.521 1.51979 15.6863 1.93581 15.6863H5.07307V26.6667C5.07307 27.0827 5.23834 27.4817 5.53251 27.7759C5.82668 28.07 6.22567 28.2353 6.6417 28.2353H11.3476C11.7636 28.2353 12.1626 28.07 12.4568 27.7759C12.7509 27.4817 12.9162 27.0827 12.9162 26.6667V20.3922H19.1907V26.6667C19.1907 27.0827 19.356 27.4817 19.6502 27.7759C19.9443 28.07 20.3433 28.2353 20.7593 28.2353H25.4652C25.8813 28.2353 26.2802 28.07 26.5744 27.7759C26.8686 27.4817 27.0339 27.0827 27.0339 26.6667V15.6863H30.1711C30.5871 15.6863 30.9861 15.521 31.2803 15.2268C31.5745 14.9327 31.7397 14.5337 31.7397 14.1176C31.7375 13.8844 31.6823 13.6548 31.5782 13.446C31.4741 13.2373 31.3239 13.055 31.139 12.9129C25.7539 8.37647 16.0535 0 16.0535 0Z" fill="#00DF5E"/>
</svg>
