<svg width="50" height="60" viewBox="0 0 50 60" fill="none" xmlns="http://www.w3.org/2000/svg">
<g clip-path="url(#clip0_111_2763)">
<path d="M24.9999 59.8733C18.0254 57.8844 12.2302 53.8277 7.61447 47.7033C3.00105 41.5766 0.694336 34.6755 0.694336 26.9999V8.97326L24.9999 0.256592L49.3054 8.97326V26.9999C49.3054 34.6755 46.9987 41.5755 42.3853 47.6999C37.7696 53.8266 31.9744 57.8844 24.9999 59.8733ZM24.9999 56.3333C31.0184 54.4999 35.9953 50.8333 39.9304 45.3333C43.8656 39.8333 45.8332 33.7221 45.8332 26.9999V11.2499L24.9999 3.81659L4.16656 11.2499V26.9999C4.16656 33.7221 6.13415 39.8333 10.0693 45.3333C14.0045 50.8333 18.9814 54.4999 24.9999 56.3333Z" fill="#00DF5E"/>
</g>
<defs>
<clipPath id="clip0_111_2763">
<rect width="50" height="60" fill="white"/>
</clipPath>
</defs>
</svg>
