<svg width="50" height="45" viewBox="0 0 50 45" fill="none" xmlns="http://www.w3.org/2000/svg">
<path d="M39.7061 2.45093L47.059 9.80387L39.7061 17.1568M39.7061 41.6666L47.059 34.3137L39.7061 26.9607" stroke="#00DF5E" stroke-width="3" stroke-linecap="round" stroke-linejoin="round"/>
<path d="M2.94141 9.80397H10.2943C13.5445 9.80397 16.6616 11.0951 18.9599 13.3933C21.2581 15.6916 22.5492 18.8087 22.5492 22.0589C22.5492 25.3091 23.8404 28.4262 26.1386 30.7244C28.4369 33.0226 31.5539 34.3138 34.8041 34.3138H47.059M47.059 9.80397H34.8041C32.1519 9.80006 29.5706 10.6605 27.4512 12.2549M17.6473 31.8628C15.5273 33.4563 12.9464 34.3166 10.2943 34.3138H2.94141" stroke="#00DF5E" stroke-width="3" stroke-linecap="round" stroke-linejoin="round"/>
</svg>
