<svg width="50" height="40" viewBox="0 0 50 40" fill="none" xmlns="http://www.w3.org/2000/svg">
<g clip-path="url(#clip0_111_2839)">
<path d="M47.6068 24.3205C47.0377 23.8821 46.3749 23.5812 45.6703 23.4414C44.9656 23.3015 44.2382 23.3265 43.5448 23.5143L34.1448 25.6752C34.453 24.8576 34.5582 23.9776 34.4516 23.1104C34.3449 22.2433 34.0296 21.4149 33.5325 20.6964C33.0354 19.9779 32.3715 19.3906 31.5977 18.985C30.8239 18.5794 29.9632 18.3676 29.0896 18.3676H18.6881C17.8692 18.3653 17.058 18.5255 16.3015 18.839C15.545 19.1525 14.8583 19.6131 14.2811 20.194L9.45857 25.0165H3.32493C2.55343 25.0165 1.81354 25.323 1.26802 25.8685C0.722489 26.414 0.416016 27.1539 0.416016 27.9254V36.2366C0.416016 37.0081 0.722489 37.748 1.26802 38.2935C1.81354 38.839 2.55343 39.1455 3.32493 39.1455H24.934C25.0362 39.1455 25.1381 39.133 25.2373 39.1081L38.5352 35.7836C38.5981 35.7669 38.6599 35.7461 38.7201 35.7213L46.7861 32.2888L46.8547 32.2576C47.5679 31.9015 48.1786 31.3696 48.6294 30.7122C49.0803 30.0548 49.3563 29.2934 49.4315 28.4998C49.5068 27.7062 49.3788 26.9065 49.0595 26.1761C48.7403 25.4456 48.2404 24.8085 47.6068 24.3246V24.3205ZM2.90937 36.2366V27.9254C2.90937 27.8152 2.95315 27.7095 3.03108 27.6316C3.10901 27.5537 3.21471 27.5099 3.32493 27.5099H8.72719V36.6522H3.32493C3.21471 36.6522 3.10901 36.6084 3.03108 36.5304C2.95315 36.4525 2.90937 36.3468 2.90937 36.2366ZM45.7701 30.0032L37.8329 33.3838L24.7802 36.6522H11.2205V26.7806L16.0431 21.9559C16.3897 21.6076 16.8019 21.3314 17.2559 21.1434C17.7099 20.9555 18.1967 20.8595 18.6881 20.8609H29.0896C29.861 20.8609 30.6009 21.1674 31.1465 21.7129C31.692 22.2585 31.9985 22.9984 31.9985 23.7698C31.9985 24.5413 31.692 25.2812 31.1465 25.8268C30.6009 26.3723 29.861 26.6788 29.0896 26.6788H23.2717C22.9411 26.6788 22.624 26.8101 22.3902 27.0439C22.1564 27.2777 22.0251 27.5948 22.0251 27.9254C22.0251 28.2561 22.1564 28.5732 22.3902 28.807C22.624 29.0408 22.9411 29.1721 23.2717 29.1721H29.9207C30.0144 29.1722 30.1078 29.1618 30.1991 29.1409L44.1203 25.9391L44.1702 25.9266C44.6941 25.7837 45.2524 25.8395 45.7378 26.0832C46.2231 26.3269 46.6013 26.7413 46.7997 27.2469C46.9981 27.7524 47.0027 28.3135 46.8127 28.8222C46.6226 29.331 46.2513 29.7516 45.7701 30.0032ZM34.0763 14.212C34.5848 14.2117 35.0918 14.1574 35.5889 14.0499C35.9628 15.3777 36.7173 16.567 37.7592 17.4711C38.8011 18.3751 40.0849 18.9543 41.4522 19.1372C42.8195 19.3201 44.2104 19.0987 45.4533 18.5004C46.6963 17.902 47.7368 16.9528 48.4466 15.77C49.1563 14.5871 49.5043 13.2223 49.4474 11.8441C49.3906 10.4658 48.9315 9.13428 48.1268 8.01387C47.322 6.89347 46.2069 6.03318 44.9189 5.53916C43.6309 5.04515 42.2265 4.93901 40.879 5.23386C40.5228 3.9683 39.8206 2.82723 38.8513 1.93903C37.882 1.05082 36.6841 0.450718 35.3923 0.206234C34.1005 -0.0382495 32.7661 0.0825869 31.5393 0.555148C30.3125 1.02771 29.2418 1.83325 28.4479 2.88113C27.6539 3.92901 27.1681 5.17767 27.0451 6.48661C26.9221 7.79555 27.1668 9.11285 27.7517 10.2903C28.3365 11.4677 29.2384 12.4586 30.3557 13.1514C31.473 13.8443 32.7616 14.2116 34.0763 14.212ZM46.9586 12.1342C46.9586 13.0383 46.6905 13.9221 46.1882 14.6738C45.6859 15.4255 44.972 16.0114 44.1367 16.3574C43.3015 16.7034 42.3824 16.7939 41.4956 16.6175C40.6089 16.4411 39.7944 16.0058 39.1551 15.3665C38.5159 14.7272 38.0805 13.9127 37.9041 13.026C37.7277 12.1393 37.8183 11.2202 38.1642 10.3849C38.5102 9.54964 39.0961 8.83572 39.8478 8.33344C40.5996 7.83116 41.4833 7.56306 42.3874 7.56306C43.5998 7.56306 44.7625 8.04466 45.6197 8.90192C46.477 9.75918 46.9586 10.9219 46.9586 12.1342ZM34.0763 2.57636C35.1257 2.57512 36.1434 2.93598 36.9576 3.59804C37.7719 4.2601 38.3327 5.18281 38.5456 6.21042C37.6419 6.79639 36.8842 7.58123 36.3303 8.50495C35.7764 9.42866 35.4411 10.4668 35.3499 11.54C34.7216 11.721 34.0616 11.7651 33.4148 11.6693C32.7679 11.5735 32.1491 11.3401 31.6001 10.9847C31.0512 10.6293 30.5849 10.1602 30.2327 9.6092C29.8805 9.05818 29.6507 8.43802 29.5587 7.79058C29.4667 7.14314 29.5147 6.48349 29.6994 5.85618C29.8842 5.22887 30.2013 4.6485 30.6296 4.15426C31.0578 3.66001 31.587 3.2634 32.1816 2.99119C32.7762 2.71898 33.4223 2.57752 34.0763 2.57636Z" fill="#00DF5E"/>
</g>
<defs>
<clipPath id="clip0_111_2839">
<rect width="50" height="39.3617" fill="white"/>
</clipPath>
</defs>
</svg>
