<svg width="69" height="58" viewBox="0 0 69 58" fill="none" xmlns="http://www.w3.org/2000/svg">
<path d="M55.2264 27.7583L53.8794 28.7215L53.0539 29.4221L52.7063 30.9545L53.4449 32.4869L54.7484 34.1506L56.3126 34.9825L58.0507 35.5079H59.919L61.7874 34.9825L63.8295 34.1506L65.133 32.9685L67.1752 31.8301L69.0001 30.6918L66.1758 31.042L64.3075 30.6918L63.3081 30.2977L62.5695 29.4221L61.3963 28.3713C61.3963 28.3713 61.0487 27.7583 59.919 27.7583C58.7893 27.7583 57.5293 27.2329 57.5293 27.2329L55.2264 27.7583Z" fill="#00DF5E"/>
<path d="M2.4345 34.9386L3.3904 34.063L8.64785 30.2976L15.1219 27.7582L17.9462 26.795L20.9442 26.0507L23.6816 25.5691L26.8969 25.175H30.4598H35.1958L37.8897 25.5691L45.6238 26.795L49.4909 27.4518L53.4014 28.1961L52.7062 30.2976V32.4868L44.0162 30.7355L39.1932 29.9912L31.7633 28.8528L28.1135 28.5025H24.8982L21.7263 28.8528L17.9462 29.5533L13.9053 30.7355L9.7341 32.049L5.51945 34.5446L4.1725 35.464L3.69455 35.8581L2.65175 36.4272L2.13035 36.2959L2 35.8581V35.464L2.4345 34.9386Z" fill="#022D26" fill-opacity="0.8"/>
<path d="M43.3643 29.3344L43.538 28.3712L43.8422 27.3204L44.3201 26.6199L45.7973 26.8388L45.3628 27.7144L45.1456 28.7214L45.0153 29.9036L44.9284 30.9106L43.3643 30.6479V29.9912V29.3344Z" fill="#E9EEEA"/>
<path d="M46.2322 29.7722V28.8966L46.7101 27.5831L47.1011 27.0139L52.0541 27.9334L51.6631 28.8966L51.4024 29.6409L51.2721 30.3852L51.1417 31.436L51.2721 32.1803L46.2322 31.1733V30.5165V29.7722Z" fill="#E9EEEA"/>
<g filter="url(#filter0_d_46_49)">
<path d="M45.3195 6.56743L43.3643 6.34851V8.80035L42.1477 7.35552L40.9745 6.08581H40.3228V6.87391L39.8014 7.74956V6.56743L39.2365 5.07881L38.0634 4.37828L37.8027 5.21016L37.2378 6.21716V5.07881L36.9771 3.98424L36.3254 3.28371L35.4129 3.0648L34.7612 2.45184H34.0225L33.2404 3.98424V2.67075L32.7625 1.66375L31.7631 1.13835L30.981 1.31349L30.6334 2.05779L30.3727 3.0648L30.2424 2.05779L29.8079 1.13835L29.1561 0.525394L28.374 0.350263L27.7657 0.525394L27.4616 1.31349V2.45184L27.1574 2.27671L26.9836 1.31349L26.4622 0.350263L25.3325 0L24.507 0.350263L24.2897 1.13835L24.507 2.27671L24.029 2.45184L23.8987 1.66375L23.4207 0.91944L22.5952 0.350263H21.7262L21.1179 0.744308L20.9875 1.66375L21.1179 2.67075L20.3792 1.83888L19.5537 1.31349H18.5543L18.0764 1.66375L18.2067 3.02102V3.63398L17.2943 3.02102L16.5122 2.67075L15.5563 2.8021L15.2087 3.19615L15.3825 4.24694L15.5563 4.90368L14.7742 4.5972L13.9052 4.42207L12.8624 4.5972L12.6451 5.07881L12.8624 6.08581L13.0796 6.74256L12.3844 6.47986H10.8637L10.2554 6.96147L10.3857 7.74956L10.8637 8.80035H9.82088L8.86498 9.06305L8.38703 9.50088L8.25668 10.0701L8.56083 10.6392L9.21258 11.3398L7.95253 11.6462L7.08353 11.9965L6.60558 12.4781V13.0473L6.95318 13.5289L7.60493 14.0981L6.95318 14.5359L6.17108 15.0175L5.86693 15.324L5.43243 15.8056L5.30208 16.5061L5.43243 16.944L5.64968 17.0753L6.17108 17.6007L5.64968 18.3012L5.30208 18.6953L4.99793 19.1331L4.73723 19.8774L4.51998 20.5342V21.4098L4.73723 21.8476L5.43243 21.979L4.99793 22.4168L4.65033 22.5919L4.38963 23.8616L4.25928 26.62L4.65033 30.0788L5.21518 32.3774L5.78003 34.676L6.51868 36.8652L7.69183 39.2294L8.82153 41.0245L9.73398 42.4694L11.5589 44.4396L12.9493 45.7531L14.6873 46.9352L17.0336 48.3363L19.1192 49.2995L22.0303 49.8687L24.3332 50L26.2015 49.8687L28.7651 49.2995L30.9376 48.3363L32.5452 47.1979L33.6315 46.3222L34.935 44.8336L36.0212 42.732L36.3688 41.6375L36.5861 40.0613V38.0911L36.4557 37.2592L36.2819 36.296L35.804 35.2014L34.2832 32.8809L33.0232 31.6988L30.8507 30.4291L29.3734 30.0788H27.7223H26.8098L25.7236 30.2977L24.029 31.1296L22.8559 32.0053L22.0303 33.0998L21.5089 33.9755L21.1179 35.2014L20.9441 36.1646V37.2592V37.9159L21.2917 38.9667L21.6393 39.7548L22.2041 40.7618L23.0731 41.5061L24.029 42.1629L25.1587 42.6007L26.0277 42.732H26.8098L27.9395 42.4694L28.8954 41.944L29.3734 41.5061L29.9817 40.7618L30.3727 39.9299L30.5031 38.7478L30.3727 37.9159L29.9817 37.2592L29.3734 36.6025L28.374 36.296H27.4616L26.9836 36.6025L26.7008 36.8652L26.4188 37.3468L26.3319 37.9159L26.4622 38.3538L26.8098 38.7478L27.0705 38.9667H26.4622L25.6801 38.4851L25.1587 37.6532L24.9849 36.8652L25.1587 35.9019L25.6801 34.9387L27.0705 33.8441L28.374 33.5377H29.8079L31.1983 34.3257L32.1976 34.9387L33.197 36.1646L33.6315 37.3468L33.8487 38.9667V40.6305L33.4142 41.944L32.5452 43.5201L31.1983 44.8336L29.5906 45.7531L27.7223 46.3222L26.2015 46.4974L24.507 46.3222L22.8559 46.0158L21.1179 45.3152L19.5971 44.4396L17.555 42.6445L16.5991 41.3529L15.6432 40.0613L14.6873 38.0473L14.079 36.1646L13.6879 34.3257L13.4707 32.0053L13.7314 29.2469L14.5135 27.014L15.4259 25.0438L16.7729 22.986L17.946 22.1103L19.2495 23.2393L20.9441 24.387L23.9421 25.3065L24.4201 25.4816L25.1153 25.9632L25.7236 26.62L26.245 27.014L26.7664 27.4518H27.9395L28.1568 27.4081L28.374 27.3205L28.7216 26.7951V25.9194L28.5913 25.0438L28.2871 24.387L27.7223 23.7303L26.9402 23.2393L25.2891 22.6263L23.9421 21.8476L23.4642 21.3222L23.1166 20.9282L24.6808 20.7968L26.3753 20.5779H27.9395L28.9823 20.7968L29.243 21.6725L29.8513 22.4606L31.4206 24.023L33.5497 25.8181L35.5867 26.2697L36.9337 27.014L37.4985 28.1086L37.8461 28.5902L38.4979 28.8967L39.0627 28.6778L39.4103 28.1086V27.4518V25.9632L39.0627 25.3065L38.2806 24.387L36.3688 23.6427L35.5867 23.1611L34.935 22.4606H36.1081L37.3247 22.6263L39.8014 22.986L42.1911 23.2393H44.7517L50.1425 22.6357L52.9667 22.1103L54.1399 21.8914L54.7916 21.6725L55.313 21.4098L55.8344 20.7968L56.2255 20.1401L56.3124 19.4396V18.958V18.4326L55.7475 17.5131L54.6178 15.718V15.1051L54.5309 14.5359L54.1399 13.7478L53.575 13.1786L52.9667 12.8284L52.2281 12.6532L50.0121 9.58844L48.6652 8.23117L48.1003 7.74956L47.2748 7.35552L46.2754 6.87391L45.3195 6.56743Z" fill="#00DF5E"/>
</g>
<ellipse cx="48.4044" cy="15.1052" rx="2.78062" ry="2.84588" fill="#001F01"/>
<ellipse cx="49.3172" cy="15.1926" rx="0.651708" ry="0.656743" fill="#F6F6FE"/>
<defs>
<filter id="filter0_d_46_49" x="0.259277" y="0" width="60.0532" height="58" filterUnits="userSpaceOnUse" color-interpolation-filters="sRGB">
<feFlood flood-opacity="0" result="BackgroundImageFix"/>
<feColorMatrix in="SourceAlpha" type="matrix" values="0 0 0 0 0 0 0 0 0 0 0 0 0 0 0 0 0 0 127 0" result="hardAlpha"/>
<feOffset dy="4"/>
<feGaussianBlur stdDeviation="2"/>
<feComposite in2="hardAlpha" operator="out"/>
<feColorMatrix type="matrix" values="0 0 0 0 0 0 0 0 0 0 0 0 0 0 0 0 0 0 0.25 0"/>
<feBlend mode="normal" in2="BackgroundImageFix" result="effect1_dropShadow_46_49"/>
<feBlend mode="normal" in="SourceGraphic" in2="effect1_dropShadow_46_49" result="shape"/>
</filter>
</defs>
</svg>
