<svg width="52" height="41" viewBox="0 0 52 41" fill="none" xmlns="http://www.w3.org/2000/svg">
<g filter="url(#filter0_d_60_363)">
<path d="M38.9546 18.0909L38.07 18.7187L37.5278 19.1753L37.2996 20.174L37.7846 21.1727L38.6407 22.257L39.6679 22.7991L40.8093 23.1415H42.0363L43.2632 22.7991L44.6044 22.257L45.4604 21.4865L46.8015 20.7446L47.9999 20.0028L46.1452 20.231L44.9182 20.0028L44.2619 19.7459L43.7769 19.1753L43.0064 18.4904C43.0064 18.4904 42.7782 18.0909 42.0363 18.0909C41.2944 18.0909 40.4669 17.7485 40.4669 17.7485L38.9546 18.0909Z" fill="white" fill-opacity="0.02" shape-rendering="crispEdges"/>
</g>
<g filter="url(#filter1_d_60_363)">
<path d="M4.28534 22.7704L4.9131 22.1997L8.36576 19.7457L12.6174 18.0908L14.4721 17.463L16.441 16.9779L18.2387 16.664L20.3502 16.4072H22.69H25.8003L27.5694 16.664L32.6485 17.463L35.1881 17.891L37.7562 18.3761L37.2996 19.7457V21.1725L31.5927 20.0311L28.4254 19.546L23.546 18.8041L21.1492 18.5758H19.0376L16.9546 18.8041L14.4721 19.2607L11.8184 20.0311L9.07912 20.8871L6.31128 22.5136L5.42672 23.1128L5.11284 23.3696L4.42802 23.7406L4.0856 23.655L4 23.3696V23.1128L4.28534 22.7704Z" fill="white" fill-opacity="0.02" shape-rendering="crispEdges"/>
</g>
<g filter="url(#filter2_d_60_363)">
<path d="M31.1646 19.1178L31.2787 18.49L31.4784 17.8052L31.7923 17.3486L32.7625 17.4913L32.4771 18.062L32.3345 18.7183L32.2489 19.4887L32.1918 20.145L31.1646 19.9738V19.5458V19.1178Z" fill="white" fill-opacity="0.02" shape-rendering="crispEdges"/>
</g>
<g filter="url(#filter3_d_60_363)">
<path d="M33.0479 19.4036V18.8329L33.3617 17.9769L33.6185 17.606L36.8715 18.2052L36.6146 18.8329L36.4434 19.318L36.3578 19.8031L36.2722 20.4879L36.3578 20.973L33.0479 20.3167V19.8887V19.4036Z" fill="url(#paint0_linear_60_363)" fill-opacity="0.02" shape-rendering="crispEdges"/>
</g>
<g filter="url(#filter4_d_60_363)">
<path d="M32.4489 4.28016L31.1648 4.13748V5.73541L30.3659 4.79377L29.5954 3.96628H29.1674V4.4799L28.825 5.05058V4.28016L28.4541 3.30999L27.6836 2.85344L27.5124 3.39559L27.1415 4.05188V3.30999L26.9703 2.59663L26.5422 2.14008L25.943 1.99741L25.515 1.59792H25.0299L24.5163 2.59663V1.7406L24.2024 1.08431L23.5461 0.741894L23.0325 0.856031L22.8042 1.34112L22.633 1.99741L22.5474 1.34112L22.2621 0.741894L21.8341 0.342412L21.3205 0.228275L20.921 0.342412L20.7212 0.856031V1.59792L20.5215 1.48379L20.4074 0.856031L20.0649 0.228275L19.3231 0L18.7809 0.228275L18.6382 0.741894L18.7809 1.48379L18.467 1.59792L18.3814 1.08431L18.0675 0.599222L17.5254 0.228275H16.9547L16.5552 0.485084L16.4696 1.08431L16.5552 1.7406L16.0701 1.19844L15.528 0.856031H14.8717L14.5578 1.08431L14.6434 1.96887V2.36835L14.0442 1.96887L13.5306 1.7406L12.9028 1.8262L12.6745 2.08301L12.7887 2.76783L12.9028 3.19585L12.3892 2.99611L11.8185 2.88197L11.1337 2.99611L10.991 3.30999L11.1337 3.96628L11.2764 4.39429L10.8198 4.22309H9.82111L9.42163 4.53697L9.50723 5.05058L9.82111 5.73541H9.13629L8.50853 5.90662L8.19465 6.19196L8.10905 6.56291L8.30879 6.93385L8.7368 7.3904L7.90931 7.59014L7.33862 7.81842L7.02474 8.1323V8.50324L7.25302 8.81712L7.68103 9.18807L7.25302 9.47341L6.7394 9.78729L6.53966 9.98703L6.25431 10.3009L6.16871 10.7575L6.25431 11.0428L6.39699 11.1284L6.7394 11.4708L6.39699 11.9274L6.16871 12.1842L5.96897 12.4695L5.79776 12.9546L5.65509 13.3826V13.9533L5.79776 14.2387L6.25431 14.3243L5.96897 14.6096L5.7407 14.7237L5.56949 15.5512L5.48389 17.3489L5.7407 19.6031L6.11164 21.1012L6.48259 22.5992L6.96767 24.0259L7.7381 25.5668L8.48 26.7367L9.07922 27.6783L10.2777 28.9624L11.1908 29.8184L12.3321 30.5888L13.873 31.5019L15.2426 32.1297L17.1544 32.5007L18.6668 32.5863L19.8937 32.5007L21.5773 32.1297L23.004 31.5019L24.0598 30.7601L24.7731 30.1894L25.6292 29.2192L26.3425 27.8495L26.5708 27.1362L26.7135 26.109V24.8249L26.6279 24.2828L26.5137 23.655L26.1998 22.9416L25.2011 21.4293L24.3736 20.6589L22.9469 19.8314L21.9768 19.6031H20.8924H20.2932L19.5799 19.7458L18.467 20.2879L17.6966 20.8586L17.1544 21.572L16.812 22.1427L16.5552 22.9416L16.4411 23.5694V24.2828V24.7108L16.6694 25.3956L16.8976 25.9092L17.2686 26.5655L17.8393 27.0506L18.467 27.4786L19.2089 27.7639L19.7796 27.8495H20.2932L21.0351 27.6783L21.6629 27.3359L21.9768 27.0506L22.3762 26.5655L22.633 26.0233L22.7186 25.2529L22.633 24.7108L22.3762 24.2828L21.9768 23.8547L21.3205 23.655H20.7212L20.4074 23.8547L20.2216 24.0259L20.0364 24.3398L19.9793 24.7108L20.0649 24.9961L20.2932 25.2529L20.4644 25.3956H20.0649L19.5513 25.0817L19.2089 24.5396L19.0948 24.0259L19.2089 23.3982L19.5513 22.7704L20.4644 22.0571L21.3205 21.8573H22.2621L23.1752 22.3709L23.8315 22.7704L24.4878 23.5694L24.7731 24.3398L24.9158 25.3956V26.4799L24.6304 27.3359L24.0598 28.3632L23.1752 29.2192L22.1194 29.8184L20.8924 30.1894L19.8937 30.3035L18.7809 30.1894L17.6966 29.9896L16.5552 29.5331L15.5565 28.9624L14.2154 27.7925L13.5876 26.9507L12.9599 26.109L12.3321 24.7964L11.9327 23.5694L11.6758 22.3709L11.5332 20.8586L11.7044 19.061L12.218 17.6057L12.8172 16.3217L13.7018 14.9805L14.4722 14.4099L15.3282 15.1456L16.4411 15.8936L18.41 16.4929L18.7238 16.607L19.1804 16.9209L19.5799 17.3489L19.9223 17.6057L20.2647 17.8911H21.0351L21.1778 17.8625L21.3205 17.8054L21.5487 17.463V16.8923L21.4631 16.3217L21.2634 15.8936L20.8924 15.4656L20.3788 15.1456L19.2945 14.7461L18.41 14.2387L18.0961 13.8962L17.8678 13.6394L18.895 13.5538L20.0079 13.4112H21.0351L21.7199 13.5538L21.8911 14.1245L22.2906 14.6381L23.3212 15.6564L24.7194 16.8263L26.0572 17.1206L26.9417 17.6057L27.3127 18.3191L27.541 18.6329L27.969 18.8327L28.3399 18.69L28.5682 18.3191V17.8911V16.9209L28.3399 16.4929L27.8263 15.8936L26.5708 15.4086L26.0572 15.0947L25.6292 14.6381H26.3996L27.1985 14.7461L28.825 14.9805L30.3944 15.1456H32.076L35.6162 14.7523L37.4709 14.4099L38.2413 14.2672L38.6694 14.1245L39.0118 13.9533L39.3542 13.5538L39.611 13.1258L39.6681 12.6693V12.3554V12.013L39.2971 11.4137L38.5552 10.2438V9.84436L38.4981 9.47341L38.2413 8.95979L37.8704 8.58885L37.4709 8.36057L36.9858 8.24643L35.5306 6.24903L34.646 5.36446L34.2751 5.05058L33.7329 4.79377L33.0766 4.4799L32.4489 4.28016Z" fill="white" fill-opacity="0.02" shape-rendering="crispEdges"/>
</g>
<ellipse cx="34.4746" cy="9.84448" rx="1.8262" ry="1.85473" fill="white" fill-opacity="0.02"/>
<ellipse cx="35.0738" cy="9.90116" rx="0.428016" ry="0.428016" fill="white" fill-opacity="0.05"/>
<defs>
<filter id="filter0_d_60_363" x="33.2996" y="17.7485" width="18.7004" height="13.3931" filterUnits="userSpaceOnUse" color-interpolation-filters="sRGB">
<feFlood flood-opacity="0" result="BackgroundImageFix"/>
<feColorMatrix in="SourceAlpha" type="matrix" values="0 0 0 0 0 0 0 0 0 0 0 0 0 0 0 0 0 0 127 0" result="hardAlpha"/>
<feOffset dy="4"/>
<feGaussianBlur stdDeviation="2"/>
<feComposite in2="hardAlpha" operator="out"/>
<feColorMatrix type="matrix" values="0 0 0 0 0 0 0 0 0 0 0 0 0 0 0 0 0 0 0.25 0"/>
<feBlend mode="normal" in2="BackgroundImageFix" result="effect1_dropShadow_60_363"/>
<feBlend mode="normal" in="SourceGraphic" in2="effect1_dropShadow_60_363" result="shape"/>
</filter>
<filter id="filter1_d_60_363" x="0" y="16.4072" width="41.7561" height="15.3335" filterUnits="userSpaceOnUse" color-interpolation-filters="sRGB">
<feFlood flood-opacity="0" result="BackgroundImageFix"/>
<feColorMatrix in="SourceAlpha" type="matrix" values="0 0 0 0 0 0 0 0 0 0 0 0 0 0 0 0 0 0 127 0" result="hardAlpha"/>
<feOffset dy="4"/>
<feGaussianBlur stdDeviation="2"/>
<feComposite in2="hardAlpha" operator="out"/>
<feColorMatrix type="matrix" values="0 0 0 0 0 0 0 0 0 0 0 0 0 0 0 0 0 0 0.25 0"/>
<feBlend mode="normal" in2="BackgroundImageFix" result="effect1_dropShadow_60_363"/>
<feBlend mode="normal" in="SourceGraphic" in2="effect1_dropShadow_60_363" result="shape"/>
</filter>
<filter id="filter2_d_60_363" x="27.1646" y="17.3486" width="9.5979" height="10.7964" filterUnits="userSpaceOnUse" color-interpolation-filters="sRGB">
<feFlood flood-opacity="0" result="BackgroundImageFix"/>
<feColorMatrix in="SourceAlpha" type="matrix" values="0 0 0 0 0 0 0 0 0 0 0 0 0 0 0 0 0 0 127 0" result="hardAlpha"/>
<feOffset dy="4"/>
<feGaussianBlur stdDeviation="2"/>
<feComposite in2="hardAlpha" operator="out"/>
<feColorMatrix type="matrix" values="0 0 0 0 0 0 0 0 0 0 0 0 0 0 0 0 0 0 0.25 0"/>
<feBlend mode="normal" in2="BackgroundImageFix" result="effect1_dropShadow_60_363"/>
<feBlend mode="normal" in="SourceGraphic" in2="effect1_dropShadow_60_363" result="shape"/>
</filter>
<filter id="filter3_d_60_363" x="29.0479" y="17.606" width="11.8235" height="11.3672" filterUnits="userSpaceOnUse" color-interpolation-filters="sRGB">
<feFlood flood-opacity="0" result="BackgroundImageFix"/>
<feColorMatrix in="SourceAlpha" type="matrix" values="0 0 0 0 0 0 0 0 0 0 0 0 0 0 0 0 0 0 127 0" result="hardAlpha"/>
<feOffset dy="4"/>
<feGaussianBlur stdDeviation="2"/>
<feComposite in2="hardAlpha" operator="out"/>
<feColorMatrix type="matrix" values="0 0 0 0 0 0 0 0 0 0 0 0 0 0 0 0 0 0 0.25 0"/>
<feBlend mode="normal" in2="BackgroundImageFix" result="effect1_dropShadow_60_363"/>
<feBlend mode="normal" in="SourceGraphic" in2="effect1_dropShadow_60_363" result="shape"/>
</filter>
<filter id="filter4_d_60_363" x="1.48389" y="0" width="42.1841" height="40.5864" filterUnits="userSpaceOnUse" color-interpolation-filters="sRGB">
<feFlood flood-opacity="0" result="BackgroundImageFix"/>
<feColorMatrix in="SourceAlpha" type="matrix" values="0 0 0 0 0 0 0 0 0 0 0 0 0 0 0 0 0 0 127 0" result="hardAlpha"/>
<feOffset dy="4"/>
<feGaussianBlur stdDeviation="2"/>
<feComposite in2="hardAlpha" operator="out"/>
<feColorMatrix type="matrix" values="0 0 0 0 0 0 0 0 0 0 0 0 0 0 0 0 0 0 0.25 0"/>
<feBlend mode="normal" in2="BackgroundImageFix" result="effect1_dropShadow_60_363"/>
<feBlend mode="normal" in="SourceGraphic" in2="effect1_dropShadow_60_363" result="shape"/>
</filter>
<linearGradient id="paint0_linear_60_363" x1="34.9597" y1="17.606" x2="34.9597" y2="20.973" gradientUnits="userSpaceOnUse">
<stop stop-color="white"/>
<stop offset="1" stop-color="white" stop-opacity="0"/>
</linearGradient>
</defs>
</svg>
