<svg width="39" height="32" viewBox="0 0 39 32" fill="none" xmlns="http://www.w3.org/2000/svg">
<path d="M3.3343 19.1666L1.86138 17.6937L0.388468 19.1666L1.86138 20.6395L3.3343 19.1666ZM38.751 2.4999C38.751 1.94736 38.5315 1.41746 38.1408 1.02676C37.7501 0.636055 37.2202 0.416563 36.6676 0.416563C36.1151 0.416563 35.5852 0.636055 35.1945 1.02676C34.8038 1.41746 34.5843 1.94736 34.5843 2.4999H38.751ZM12.2781 7.27698L1.86138 17.6937L4.80722 20.6395L15.2239 10.2228L12.2781 7.27698ZM1.86138 20.6395L12.2781 31.0562L15.2239 28.1103L4.80722 17.6937L1.86138 20.6395ZM3.3343 21.2499L24.1676 21.2499V17.0832L3.3343 17.0832V21.2499ZM38.751 6.66656V2.4999H34.5843L34.5843 6.66656H38.751ZM24.1676 21.2499C28.0354 21.2499 31.7447 19.7134 34.4796 16.9785C37.2145 14.2436 38.751 10.5343 38.751 6.66656H34.5843C34.5843 9.42924 33.4868 12.0788 31.5333 14.0323C29.5798 15.9858 26.9303 17.0832 24.1676 17.0832V21.2499Z" fill="#00DF5E"/>
</svg>
