<svg width="28" height="27" viewBox="0 0 28 27" fill="none" xmlns="http://www.w3.org/2000/svg">
<path d="M13.9998 0.666748C12.2489 0.666748 10.5151 1.01162 8.89739 1.68169C7.27972 2.35175 5.80986 3.33388 4.57175 4.57199C2.07126 7.07248 0.666504 10.4639 0.666504 14.0001C0.666504 19.8934 4.49317 24.8934 9.7865 26.6667C10.4532 26.7734 10.6665 26.3601 10.6665 26.0001V23.7467C6.97317 24.5467 6.1865 21.9601 6.1865 21.9601C5.57317 20.4134 4.7065 20.0001 4.7065 20.0001C3.49317 19.1734 4.79984 19.2001 4.79984 19.2001C6.13317 19.2934 6.83984 20.5734 6.83984 20.5734C7.99984 22.6001 9.95984 22.0001 10.7198 21.6801C10.8398 20.8134 11.1865 20.2267 11.5598 19.8934C8.59984 19.5601 5.49317 18.4134 5.49317 13.3334C5.49317 11.8534 5.99984 10.6667 6.8665 9.72008C6.73317 9.38675 6.2665 8.00008 6.99984 6.20008C6.99984 6.20008 8.11984 5.84008 10.6665 7.56008C11.7198 7.26675 12.8665 7.12008 13.9998 7.12008C15.1332 7.12008 16.2798 7.26675 17.3332 7.56008C19.8798 5.84008 20.9998 6.20008 20.9998 6.20008C21.7332 8.00008 21.2665 9.38675 21.1332 9.72008C21.9998 10.6667 22.5065 11.8534 22.5065 13.3334C22.5065 18.4267 19.3865 19.5467 16.4132 19.8801C16.8932 20.2934 17.3332 21.1067 17.3332 22.3467V26.0001C17.3332 26.3601 17.5465 26.7867 18.2265 26.6667C23.5198 24.8801 27.3332 19.8934 27.3332 14.0001C27.3332 12.2491 26.9883 10.5153 26.3182 8.89764C25.6482 7.27996 24.666 5.81011 23.4279 4.57199C22.1898 3.33388 20.72 2.35175 19.1023 1.68169C17.4846 1.01162 15.7508 0.666748 13.9998 0.666748Z" fill="#00DF5E"/>
</svg>
